<svg width="805" height="349" viewBox="0 0 805 349" fill="none" xmlns="http://www.w3.org/2000/svg">
<path fill-rule="evenodd" clip-rule="evenodd" d="M174.042 349C270.163 349 348.084 270.874 348.084 174.5C348.084 78.1264 270.163 0 174.042 0C77.9213 0 0 78.1264 0 174.5C0 270.874 77.9213 349 174.042 349ZM174.042 332.991C261.344 332.991 332.117 262.032 332.117 174.5C332.117 86.9679 261.344 16.0092 174.042 16.0092C86.7396 16.0092 15.9671 86.9679 15.9671 174.5C15.9671 262.032 86.7396 332.991 174.042 332.991Z" fill="url(#paint0_linear)"/>
<path d="M123.394 137.181C124.016 137.96 125.221 137.879 125.733 137.024C126.445 135.834 128.259 136.254 128.38 137.636L134.638 209.216C135.267 216.403 126.573 220.429 121.523 215.29L118.073 211.779C117.474 211.17 117.138 210.349 117.138 209.494C117.138 206.647 113.669 205.095 111.329 206.708C105.002 211.071 98.3226 213.253 91.2915 213.253C79.6503 213.253 70.0261 209.039 62.4191 200.611C54.8696 192.01 51.0948 181.273 51.0948 168.4C51.0948 155.759 54.8696 145.224 62.4191 136.796C69.9686 128.368 79.4199 124.154 90.7729 124.154C100.57 124.154 112.47 125.164 120.25 133.246L123.394 137.181ZM70.9771 168.4C70.9771 176.482 73.1381 183.063 77.4604 188.142C81.8979 193.28 87.488 195.849 94.2307 195.849C101.434 195.849 107.255 193.367 111.693 188.402C116.13 183.265 118.349 176.742 118.349 168.833C118.349 160.925 116.13 154.402 111.693 149.264C107.255 144.242 101.492 141.731 94.4035 141.731C87.7185 141.731 82.1284 144.271 77.6334 149.351C73.1958 154.489 70.9771 160.838 70.9771 168.4Z" fill="url(#paint1_linear)"/>
<path d="M125.783 149.871V149.31C125.783 148.945 125.809 148.581 125.86 148.22L127.647 135.692C127.874 134.101 128.573 132.6 129.753 131.513C132.716 128.783 135.349 127.346 139.061 125.487C143.487 123.271 149.181 123.271 153.445 123.271C159.518 123.271 166.12 125.326 171.54 128.977C175.957 131.953 182.673 131.978 187.097 129.01C191.924 125.773 197.592 124.154 204.102 124.154C223.063 124.154 232.542 135.67 232.542 158.702V203.132C232.542 207.383 229.105 210.828 224.866 210.828H220.681C216.442 210.828 213.005 207.383 213.005 203.132V163.984C213.005 155.903 212.026 150.188 210.066 146.84C208.049 143.434 204.736 141.731 200.125 141.731C194.766 141.731 190.847 143.752 188.369 147.792C185.948 151.833 184.738 158.327 184.738 167.275V203.132C184.738 207.383 181.301 210.828 177.062 210.828H172.878C168.639 210.828 165.202 207.383 165.202 203.132V164.244C165.202 149.236 160.879 141.731 152.235 141.731C146.76 141.731 142.755 143.78 140.219 147.879C137.741 151.977 136.502 158.443 136.502 167.275V211.755C136.502 218.639 128.177 222.061 123.357 217.157L119.805 213.542C118.125 211.832 117.336 209.434 117.673 207.057L125.783 149.871Z" fill="url(#paint2_linear)"/>
<path d="M231.853 257.876C231.837 264.76 223.504 268.163 218.696 263.248L214.728 259.193C213.321 257.754 212.532 255.818 212.532 253.803V137.804C212.532 133.488 217.606 131.184 220.841 134.032L220.948 134.126C221.361 134.49 221.841 134.771 222.361 134.952C223.91 135.494 225.618 135.085 226.856 134.006C234.575 127.275 245.857 122.486 254.803 122.486C266.388 122.486 279.211 128.653 286.703 137.196C294.309 145.682 298.113 156.39 298.113 169.32C298.113 181.962 294.338 192.497 286.789 200.925C279.297 209.295 269.846 213.48 258.434 213.48C254.629 213.48 250.979 212.891 247.483 211.712C240.985 209.52 231.956 213.447 231.94 220.321L231.853 257.876ZM278.23 169.407C278.23 161.325 276.04 154.745 271.66 149.665C267.223 144.527 261.633 141.959 254.89 141.959C247.744 141.959 241.953 144.441 237.516 149.405C233.077 154.37 230.859 160.893 230.859 168.974C230.859 176.883 233.077 183.405 237.516 188.543C241.896 193.565 247.658 196.076 254.803 196.076C261.546 196.076 267.108 193.536 271.487 188.456C275.982 183.377 278.23 177.027 278.23 169.407Z" fill="url(#paint3_linear)"/>
<path d="M455.856 153.652C457.741 153.652 459.3 154.27 460.533 155.506C461.766 156.742 462.382 158.342 462.382 160.305V206.439C462.382 208.329 461.766 209.929 460.533 211.237C459.3 212.473 457.741 213.091 455.856 213.091C453.97 213.091 452.411 212.473 451.178 211.237C450.018 210.001 449.402 208.438 449.329 206.548C447.516 208.656 445.05 210.474 441.932 212.001C438.886 213.455 435.66 214.182 432.251 214.182C427.247 214.182 422.715 212.91 418.654 210.365C414.593 207.747 411.366 204.148 408.973 199.568C406.652 194.987 405.492 189.788 405.492 183.972C405.492 178.155 406.652 172.956 408.973 168.376C411.294 163.722 414.448 160.123 418.437 157.579C422.498 154.961 426.957 153.652 431.816 153.652C435.297 153.652 438.56 154.307 441.606 155.615C444.652 156.851 447.226 158.451 449.329 160.414V160.305C449.329 158.415 449.945 156.851 451.178 155.615C452.411 154.307 453.97 153.652 455.856 153.652ZM433.883 202.185C438.596 202.185 442.44 200.476 445.413 197.059C448.386 193.569 449.873 189.207 449.873 183.972C449.873 178.737 448.386 174.374 445.413 170.884C442.44 167.394 438.596 165.649 433.883 165.649C429.242 165.649 425.435 167.394 422.461 170.884C419.488 174.374 418.001 178.737 418.001 183.972C418.001 189.207 419.452 193.569 422.353 197.059C425.326 200.476 429.169 202.185 433.883 202.185Z" fill="url(#paint4_linear)"/>
<path d="M543.643 153.652C550.822 153.652 555.79 155.87 558.545 160.305C561.301 164.668 562.679 170.739 562.679 178.519V206.439C562.679 208.329 562.063 209.929 560.83 211.237C559.597 212.473 558.038 213.091 556.152 213.091C554.267 213.091 552.708 212.473 551.475 211.237C550.242 209.929 549.626 208.329 549.626 206.439V178.519C549.626 174.52 548.828 171.393 547.233 169.139C545.71 166.812 542.99 165.649 539.074 165.649C535.013 165.649 531.823 166.885 529.502 169.357C527.254 171.757 526.13 174.81 526.13 178.519V206.439C526.13 208.329 525.514 209.929 524.281 211.237C523.048 212.473 521.489 213.091 519.604 213.091C517.718 213.091 516.159 212.473 514.926 211.237C513.693 209.929 513.077 208.329 513.077 206.439V178.519C513.077 174.52 512.279 171.393 510.684 169.139C509.161 166.812 506.442 165.649 502.526 165.649C498.465 165.649 495.274 166.885 492.953 169.357C490.705 171.757 489.581 174.81 489.581 178.519V206.439C489.581 208.329 488.965 209.929 487.732 211.237C486.499 212.473 484.94 213.091 483.055 213.091C481.169 213.091 479.61 212.473 478.377 211.237C477.145 209.929 476.528 208.329 476.528 206.439V161.396C476.528 159.505 477.145 157.942 478.377 156.706C479.61 155.397 481.169 154.743 483.055 154.743C484.94 154.743 486.499 155.397 487.732 156.706C488.965 157.942 489.581 159.505 489.581 161.396V163.141C491.539 160.523 494.005 158.306 496.978 156.488C500.024 154.597 503.396 153.652 507.094 153.652C516.231 153.652 522.069 157.651 524.607 165.649C526.275 162.595 528.777 159.832 532.113 157.36C535.521 154.888 539.365 153.652 543.643 153.652Z" fill="url(#paint5_linear)"/>
<path d="M606.937 153.652C611.941 153.652 616.473 154.961 620.534 157.579C624.595 160.123 627.786 163.686 630.107 168.267C632.5 172.847 633.696 178.046 633.696 183.863C633.696 189.679 632.536 194.914 630.215 199.568C627.895 204.148 624.704 207.747 620.643 210.365C616.655 212.91 612.231 214.182 607.372 214.182C603.891 214.182 600.592 213.491 597.474 212.11C594.428 210.656 591.89 208.911 589.859 206.875V228.251C589.859 230.141 589.243 231.705 588.01 232.941C586.777 234.249 585.218 234.904 583.333 234.904C581.447 234.904 579.888 234.286 578.655 233.05C577.423 231.814 576.806 230.214 576.806 228.251V161.396C576.806 159.505 577.423 157.942 578.655 156.706C579.888 155.397 581.447 154.743 583.333 154.743C585.218 154.743 586.777 155.397 588.01 156.706C589.243 157.942 589.859 159.505 589.859 161.396V161.832C591.6 159.651 594.029 157.76 597.147 156.161C600.266 154.488 603.529 153.652 606.937 153.652ZM605.306 202.185C609.947 202.185 613.754 200.44 616.727 196.95C619.7 193.46 621.187 189.098 621.187 183.863C621.187 178.628 619.7 174.301 616.727 170.884C613.826 167.394 610.019 165.649 605.306 165.649C600.592 165.649 596.749 167.394 593.775 170.884C590.802 174.301 589.315 178.628 589.315 183.863C589.315 189.098 590.802 193.46 593.775 196.95C596.749 200.44 600.592 202.185 605.306 202.185Z" fill="url(#paint6_linear)"/>
<path d="M675.689 153.652C683.086 153.652 688.198 155.87 691.026 160.305C693.855 164.668 695.269 170.739 695.269 178.519V206.439C695.269 208.329 694.652 209.929 693.419 211.237C692.187 212.473 690.627 213.091 688.742 213.091C686.857 213.091 685.297 212.473 684.065 211.237C682.832 209.929 682.215 208.329 682.215 206.439V178.519C682.215 174.52 681.381 171.393 679.714 169.139C678.046 166.812 675.181 165.649 671.12 165.649C666.914 165.649 663.615 166.885 661.222 169.357C658.829 171.757 657.632 174.81 657.632 178.519V206.439C657.632 208.329 657.016 209.929 655.783 211.237C654.55 212.473 652.991 213.091 651.105 213.091C649.22 213.091 647.661 212.473 646.428 211.237C645.195 209.929 644.579 208.329 644.579 206.439V161.396C644.579 159.505 645.195 157.942 646.428 156.706C647.661 155.397 649.22 154.743 651.105 154.743C652.991 154.743 654.55 155.397 655.783 156.706C657.016 157.942 657.632 159.505 657.632 161.396V163.25C659.59 160.632 662.128 158.378 665.246 156.488C668.437 154.597 671.918 153.652 675.689 153.652Z" fill="url(#paint7_linear)"/>
<path d="M761.59 182.554C761.517 184.299 760.828 185.717 759.523 186.807C758.218 187.898 756.695 188.443 754.954 188.443H719.058C719.928 192.733 721.923 196.114 725.041 198.586C728.159 200.985 731.676 202.185 735.592 202.185C738.565 202.185 740.886 201.931 742.554 201.422C744.222 200.84 745.527 200.258 746.47 199.677C747.485 199.022 748.174 198.586 748.537 198.368C749.842 197.714 751.075 197.386 752.235 197.386C753.758 197.386 755.063 197.932 756.151 199.022C757.239 200.113 757.783 201.385 757.783 202.839C757.783 204.803 756.767 206.584 754.737 208.184C752.706 209.856 749.987 211.274 746.579 212.437C743.17 213.6 739.726 214.182 736.245 214.182C730.153 214.182 724.823 212.91 720.255 210.365C715.759 207.82 712.278 204.33 709.812 199.895C707.347 195.387 706.114 190.334 706.114 184.735C706.114 178.482 707.419 172.993 710.03 168.267C712.641 163.541 716.085 159.942 720.364 157.469C724.642 154.925 729.211 153.652 734.069 153.652C738.856 153.652 743.352 154.961 747.558 157.579C751.836 160.196 755.245 163.722 757.783 168.158C760.321 172.593 761.59 177.392 761.59 182.554ZM734.069 165.649C725.657 165.649 720.69 169.612 719.167 177.537H747.666V176.774C747.376 173.72 745.89 171.102 743.207 168.921C740.523 166.74 737.478 165.649 734.069 165.649Z" fill="url(#paint8_linear)"/>
<path d="M800.54 200.767C801.555 200.767 802.462 201.276 803.26 202.294C804.13 203.239 804.565 204.512 804.565 206.111C804.565 208.074 803.477 209.747 801.302 211.128C799.199 212.437 796.805 213.091 794.122 213.091C789.626 213.091 785.819 212.146 782.701 210.256C779.655 208.293 778.132 204.185 778.132 197.932V167.83H773.129C771.388 167.83 769.938 167.249 768.778 166.085C767.617 164.922 767.037 163.468 767.037 161.723C767.037 160.051 767.617 158.669 768.778 157.579C769.938 156.415 771.388 155.834 773.129 155.834H778.132V148.854C778.132 146.963 778.749 145.4 779.981 144.164C781.287 142.855 782.882 142.201 784.768 142.201C786.581 142.201 788.103 142.855 789.336 144.164C790.569 145.4 791.185 146.963 791.185 148.854V155.834H798.909C800.649 155.834 802.099 156.415 803.26 157.579C804.42 158.742 805 160.196 805 161.941C805 163.613 804.42 165.031 803.26 166.194C802.099 167.285 800.649 167.83 798.909 167.83H791.185V197.386C791.185 198.913 791.584 200.04 792.382 200.767C793.18 201.422 794.267 201.749 795.645 201.749C796.225 201.749 797.023 201.603 798.038 201.313C798.909 200.949 799.742 200.767 800.54 200.767Z" fill="url(#paint9_linear)"/>
<defs>
<linearGradient id="paint0_linear" x1="605.8" y1="104.029" x2="605.8" y2="244.971" gradientUnits="userSpaceOnUse">
<stop stop-color="#5FBE25"/>
<stop offset="1" stop-color="#44B76B"/>
</linearGradient>
<linearGradient id="paint1_linear" x1="605.8" y1="104.029" x2="605.8" y2="244.971" gradientUnits="userSpaceOnUse">
<stop stop-color="#5FBE25"/>
<stop offset="1" stop-color="#44B76B"/>
</linearGradient>
<linearGradient id="paint2_linear" x1="605.8" y1="104.029" x2="605.8" y2="244.971" gradientUnits="userSpaceOnUse">
<stop stop-color="#5FBE25"/>
<stop offset="1" stop-color="#44B76B"/>
</linearGradient>
<linearGradient id="paint3_linear" x1="605.8" y1="104.029" x2="605.8" y2="244.971" gradientUnits="userSpaceOnUse">
<stop stop-color="#5FBE25"/>
<stop offset="1" stop-color="#44B76B"/>
</linearGradient>
<linearGradient id="paint4_linear" x1="605.8" y1="104.029" x2="605.8" y2="244.971" gradientUnits="userSpaceOnUse">
<stop stop-color="#5FBE25"/>
<stop offset="1" stop-color="#44B76B"/>
</linearGradient>
<linearGradient id="paint5_linear" x1="605.8" y1="104.029" x2="605.8" y2="244.971" gradientUnits="userSpaceOnUse">
<stop stop-color="#5FBE25"/>
<stop offset="1" stop-color="#44B76B"/>
</linearGradient>
<linearGradient id="paint6_linear" x1="605.8" y1="104.029" x2="605.8" y2="244.971" gradientUnits="userSpaceOnUse">
<stop stop-color="#5FBE25"/>
<stop offset="1" stop-color="#44B76B"/>
</linearGradient>
<linearGradient id="paint7_linear" x1="605.8" y1="104.029" x2="605.8" y2="244.971" gradientUnits="userSpaceOnUse">
<stop stop-color="#5FBE25"/>
<stop offset="1" stop-color="#44B76B"/>
</linearGradient>
<linearGradient id="paint8_linear" x1="605.8" y1="104.029" x2="605.8" y2="244.971" gradientUnits="userSpaceOnUse">
<stop stop-color="#5FBE25"/>
<stop offset="1" stop-color="#44B76B"/>
</linearGradient>
<linearGradient id="paint9_linear" x1="605.8" y1="104.029" x2="605.8" y2="244.971" gradientUnits="userSpaceOnUse">
<stop stop-color="#5FBE25"/>
<stop offset="1" stop-color="#44B76B"/>
</linearGradient>
</defs>
</svg>
